# xmcd CD database file
#
# Track frame offsets:
#	150
#	29701
#	49054
#	65401
#	90183
#	113558
#	162569
#	201969
#	242815
#
# Disc length: 3700 seconds
#
# Revision: 0
# Processed by: cddbd v1.5.2PL0 Copyright (c) Steve Scherf et al.
# Submitted via: CDex 1.51
#
DISCID=760e7209
DTITLE=John Coltrane - Gold - Disk 2
DYEAR=2006
DGENRE=Jazz
TTITLE0=Impressions
TTITLE1=In A Sentimental Mood
TTITLE2=All Or Nothing At All
TTITLE3=Lush Life
TTITLE4=Alabama
TTITLE5=Afro Blue
TTITLE6=Crescent
TTITLE7=Wise One
TTITLE8=A Love Supreme: Part 1 -- Acknowledgement
EXTD=YEAR: 2006
EXTT0=
EXTT1=
EXTT2=
EXTT3=
EXTT4=
EXTT5=
EXTT6=
EXTT7=
EXTT8=
PLAYORDER=
